<svg id="Layer_1" data-name="Layer 1" xmlns="http://www.w3.org/2000/svg" xmlns:xlink="http://www.w3.org/1999/xlink" viewBox="0 0 1366 768"><defs><style>.cls-1{fill:#fff;}.cls-2{fill:url(#radial-gradient);}.cls-3{font-size:47px;font-family:PTSerif-Bold, PT Serif;}.cls-15,.cls-4{font-weight:700;}.cls-5{font-size:35px;font-family:MyriadPro-Regular, Myriad Pro;}.cls-6{letter-spacing:0em;}.cls-7{letter-spacing:-0.01em;}.cls-8{letter-spacing:0em;}.cls-9{letter-spacing:-0.01em;}.cls-10{letter-spacing:0.01em;}.cls-11{letter-spacing:-0.04em;}.cls-12{letter-spacing:-0.01em;}.cls-13{letter-spacing:0em;}.cls-14{letter-spacing:-0.01em;}.cls-15{font-size:60px;font-family:PTSerif-BoldItalic, PT Serif;font-style:italic;}.cls-16{letter-spacing:-0.04em;}.cls-17{letter-spacing:-0.03em;}.cls-18{letter-spacing:0.01em;}.cls-19{letter-spacing:0em;}.cls-20{letter-spacing:0em;}.cls-21{letter-spacing:-0.01em;}.cls-22{letter-spacing:-0.01em;}.cls-23{letter-spacing:0em;}.cls-24{letter-spacing:0.01em;}.cls-25{letter-spacing:-0.01em;}.cls-26{letter-spacing:0em;}.cls-27{letter-spacing:-0.01em;}</style><radialGradient id="radial-gradient" cx="694.27" cy="291.04" fx="687.9159584420024" fy="-907.0378755708043" r="1656.55" gradientTransform="translate(0 111.42) scale(0.42 0.62)" gradientUnits="userSpaceOnUse"><stop offset="0" stop-color="#0077be"/><stop offset="1"/></radialGradient></defs><title>underOcean</title><rect class="cls-1" width="1366" height="768"/><rect class="cls-2" width="571" height="768"/><path d="M209,306.93s-.8-2.43-2-2l.32-1s2.12-.46,2.43-1c0,0,.61-3.26.3-3.8a13.82,13.82,0,0,0,.37-4.78s.61-7.19-7.58-10.54c0,0-9.7-4-12.43,4.46,0,0-3,2.89-1.68,4.64l-1.37.48a5.8,5.8,0,0,0-1.37-2s-1.93-1.8-4.53-3.75a1.93,1.93,0,0,0,.29-.36,2.32,2.32,0,0,0-.62-3.23l-1-.68a1.35,1.35,0,0,0,.41-.43v0a1.64,1.64,0,0,0-.43-2.28l-2.43-1.64a1.64,1.64,0,0,0-2.28.43v0a1.69,1.69,0,0,0-.29,1,2.37,2.37,0,0,0-1.91,1,1.76,1.76,0,0,0-.27.55,4.28,4.28,0,0,0-4.07-2.73c-1.48-1.27-8.74-.45-9.86,0l-42.29,15.06c-1.21.43-1.71,2.16-1.11,3.85l2.66,7.44c.61,1.69,2.09,2.73,3.3,2.3l4.57-1.62c-2.25,1.43-3.64,2.5-3.69,3,0,0-12.52,1-21.78,6.87,0,0-1.68.34-1.14-.5,0,0,3.89-4.87,2.44-14.7,0,0-.68-4.62-.23-6h.57s-.55-8,0-10.26c0,0,2.34-4.6,1.89-7.17,0,0,.23-2.69-6.48-1.36,0,0-.11-.48-9.72-1-3.34-.18-9.2.64-14.75.11,0,0-16.2-.78-19,1.89,0,0-3.35,1.68,0,2.8,0,0,2.91,1.89,5,1.34a16.49,16.49,0,0,0,7.37,1.23,58.51,58.51,0,0,1,10.51.84,30.57,30.57,0,0,0,12.5-.5s5.14,1.34,4.92,5.92l-.68,4.55.78.48s-1.68,5.48-3.46,10.83c0,0-2.82,8.24-2.37,12.93l-8.12,1-.23-.78s-6.37,1.68-7.94.23c0,0-3.57-4.25-5.14-3,0,0-2.35.55-3.57,5,0,0-2.46,1.89-4,3.12a44.9,44.9,0,0,1-7.94,5.37s-6.14,3-11,4.8c0,0-11.17,4-11.74,6.81,0,0,4.14.11,4.8,0,0,0,5.48.34,7-.55,0,0,7.71-2.91,9.49-3.46,0,0,8.17-3.91,13-7.81,0,0,5.14-2.57,6.26-2.57,0,0,7.49-.45,9.61.34l.55-.45,9.28,2.57A13.75,13.75,0,0,0,100,330.71s19.55-1.68,21.78-1.23c0,0-4.92,1.89-5.37,3.57,0,0-3,.07-3.35,1.23a1.09,1.09,0,0,0,1,1.18s-1.34,1.87-.12,2.69a1.6,1.6,0,0,0,1.69,2.23s-.41,1.91,3.25,1.59a8.7,8.7,0,0,0,3.48-2.76,12.07,12.07,0,0,0,4.14-4.78l1.21-.41,5.6-5.92s13.95-1.14,17,.25l2.27.48-1,.48s-.16,1.05.32,1.21c0,0-.32,1.3-1.14,1.53,0,0-3.16-.09-3.66.89a19.31,19.31,0,0,1-3.73,1s-1.32.32-.57,1.05a3.07,3.07,0,0,0,.8.36,4.46,4.46,0,0,0,2.59-.41,6.8,6.8,0,0,1-3.25,1.37s-2.64-1.21-3.32-.68c0,0-.48.43,1.21.78,0,0-2.18-.18-2.71.66,0,0-1.09.3-.66,1.09,0,0-.91.66-.36,1.32,0,0,.05.12,1.69-.12a21.15,21.15,0,0,0,2.84,0l3.92-.36a13.68,13.68,0,0,0,4-1.75s5.07-2.66,6.58-4.53l.5-.12,4.08-3.32s6.14-.86,10.44-3.8c0,0,10-.46,19.43-13.06a11.83,11.83,0,0,1-3.1,6.6s-2.73,3.5-2.89,6.53c0,0-3,3.25-2.85,7.1a2.66,2.66,0,0,0-2.35,2l0,0a2.49,2.49,0,0,0,1.36,3.23l1.61.5a2.49,2.49,0,0,0,3-1.87l0,0a2.68,2.68,0,0,0-.73-2.91,40.83,40.83,0,0,0,3.5-8s5.53-8,5.62-14.95v0a67.82,67.82,0,0,0,7.67-.29,2.69,2.69,0,0,0,1-.14s.23,5.46,3.41,2.5l.5.37s2,.84,4.14-3.5V309C210.55,309.06,212.3,306.77,209,306.93Zm-26,25.72c.05-2.21.5-5.71,2.69-6.48C185.72,326.2,184.81,331.19,183,332.66Zm11.31-23.15a3.06,3.06,0,0,1,3.91-1.36,6,6,0,0,0,1.32,1.48A28.8,28.8,0,0,1,194.33,309.5Zm-27.56-34.05a1.37,1.37,0,1,1,1.37,1.37A1.37,1.37,0,0,1,166.77,275.45Zm1.36-4a.95.95,0,1,1,.95.95A1,1,0,0,1,168.13,271.47Zm-3.62,0a1.3,1.3,0,1,1-1.3,1.3A1.3,1.3,0,0,1,164.51,271.47ZM162.81,269a.5.5,0,1,1,1,0,.49.49,0,0,1-.5.5A.51.51,0,0,1,162.81,269Zm-4.62,2.87a1.68,1.68,0,1,1,1.68,1.68A1.67,1.67,0,0,1,158.19,271.83Zm-6.44-9.9a.95.95,0,1,1,1.89,0,1,1,0,0,1-.95.95A.94.94,0,0,1,151.75,261.93Zm1.91-2.14a1.2,1.2,0,1,1,1.2,1.2A1.2,1.2,0,0,1,153.66,259.79Zm-4.3-6a.71.71,0,1,1,.71.71A.72.72,0,0,1,149.36,253.83Zm-2.73,2.62a1.78,1.78,0,1,1-1.78,1.78A1.79,1.79,0,0,1,146.63,256.45Zm1.53,6.42a.71.71,0,1,1-.71.71A.72.72,0,0,1,148.17,262.87Zm1,7.63a.94.94,0,0,1,.95.95,1,1,0,0,1-.95.95.95.95,0,0,1,0-1.89Zm-19.55-11.92a1.43,1.43,0,1,1-1.43,1.43A1.43,1.43,0,0,1,129.58,258.59Zm3.59-4a.95.95,0,0,1,0,1.89,1,1,0,0,1-.95-.95A.93.93,0,0,1,133.17,254.54Zm.59-8.12a1.55,1.55,0,1,1,1.55-1.55A1.55,1.55,0,0,1,133.76,246.43Zm3.21-4.16a1.07,1.07,0,1,1,1.07,1.07A1.07,1.07,0,0,1,137,242.27Zm0-7.76a.71.71,0,1,1,.71.71A.7.7,0,0,1,137,234.51Zm3.1,6.3a1.77,1.77,0,1,1,1.77,1.77A1.76,1.76,0,0,1,140.07,240.81Zm1.77-4.6a2.39,2.39,0,1,1,2.39,2.39A2.39,2.39,0,0,1,141.84,236.21Zm-17-1.44a3.82,3.82,0,1,1,3.82,3.82A3.82,3.82,0,0,1,124.85,234.76Zm7.63-4.08a1.41,1.41,0,1,1,1.41,1.41A1.41,1.41,0,0,1,132.49,230.68Zm4.48-3.07a.71.71,0,1,1,.71.71A.72.72,0,0,1,137,227.61Zm-21.58,16.73a3.53,3.53,0,1,1,3.53,3.53A3.53,3.53,0,0,1,115.38,244.34Zm9.47,3.16a1.05,1.05,0,0,1,2.1,0,1.07,1.07,0,0,1-1.05,1.05A1,1,0,0,1,124.85,247.5Zm0-5a1.66,1.66,0,1,1,1.66,1.66A1.67,1.67,0,0,1,124.85,242.47Zm-7.67-7.17a1.48,1.48,0,1,1,1.48,1.48A1.48,1.48,0,0,1,117.18,235.3Zm-11.2,6a2.27,2.27,0,1,1,2.27,2.27A2.27,2.27,0,0,1,106,241.31Zm34.09,24.08a1.78,1.78,0,1,1,1.78,1.78A1.79,1.79,0,0,1,140.07,265.39Z"/><path d="M530.78,587.1a58,58,0,0,0-6.08,7.72s-5.85,6.66-7.25,8.53c0,0-13.33,15.9-14.85,19.17,0,0-4.56,7.6-6.55,9.47,0,0-1.75,1.75-6.78,2.34,0,0-16.37.58-18.35,0a7.72,7.72,0,0,0-2.1-2.22s-.58-2.92-1.52-3.16c0,0-4.21,2.22-4.79,4.33,0,0-61.14-1.64-64.06-1.52a10,10,0,0,0-4.91-4.09s-2.34-2.57-3-2.69c0,0-2.69-4.33-3.27-6.55,0,0-1.75-.82-1.87-1.4l.7-1.17s-2.57-8.07-3-9.12l-1.4-3.39s-.12-5-1.52-5c0,0-4.44.23-12,16.13a93.58,93.58,0,0,0-6,13.21,11.26,11.26,0,0,1-4.21,5.61A129.64,129.64,0,0,1,340,639.83s-10.76,2.92-20.81,6.55a307.2,307.2,0,0,0-51.79,24.9l-19.52,12s-7.25,4.33-9.24,7.25c0,0-2.22,2,1.64,4.33a25,25,0,0,0,13.44,3.8s8.42.52,13.09-.65c0,0,0,.82-1.4,1.29l1.05.7a1.21,1.21,0,0,1-1.17.94,2.77,2.77,0,0,0,1.64.94,5.43,5.43,0,0,0,3.16,1.4,87,87,0,0,0,24.43,2.34s27.36-2.69,34.6-5c0,0,18.59-2.85,20.58-3.77,0,0,18.24,10.31,29.81,14.17,0,0,18.47,6.43,28.41,5.26,0,0,1.75-.58-2.34-3.74L389,702s-8.77-7-10.4-7.6c0,0,2.22-2.22.82-3.39,0,0,24-7.13,41.27-17.54,0,0,11.22-6.31,14.5-5.73L448.36,670s1.87,0-.35-2.45a3.39,3.39,0,0,1,.7-3.36l4.56-3a2.23,2.23,0,0,0-1.64-.7A70.39,70.39,0,0,1,467.77,655s5.73-1.29,4.79-1.87c0,0,4.44.58,4.21-.82,0,0-.94-2.69.7-3.51L495,642.75s3.39-.35,6.31,4.44c0,0,7.72,12.74,15.55,19.52,0,0,3,2.57,5.85,2.57a6.44,6.44,0,0,0-1.4-5.11s-1.52-16.28-4.68-25.75c0,0-1.17-4.09,1.29-10.52L528,600.78l-.23-1.29,1.29-.35S532.54,588,530.78,587.1Z"/><path d="M268.34,450.43s-7.6-1.46-10.31-6.35c0,0-2.79-3.65.13-10a27.12,27.12,0,0,1,6.24-8.52s2.3-2.1-2.41-1a23,23,0,0,0-14.62,16s-3.55,13.38-4.66,14c0,0-11.08,6.85-14.28,8.87s-9.6,4.57-13.9,8a30.2,30.2,0,0,1-7.09,1.9l-68.59,10.89s-.82.51.1.76c0,0,71.66-9.44,76.23-8.67,0,0,7.64.76,12.59,2.87,0,0,0,2.09-15.14,2.54,0,0-3.24.24.26,1.16a273.94,273.94,0,0,0,28.29,5.21s8.74,1.5,10.28,1.19c0,0,9.82,17.63,22.76,21.64A6.88,6.88,0,0,0,278,511s-11.92-8.21-16.21-20.14c0,0-.2-1.46-.95-1.86a421.08,421.08,0,0,0,41.61-9.28s1.62.28,6.06,4.44c0,0,6.62,7.14,12,6.23,0,0,3.48-.67,1.28-1.56,0,0-5.16-2.18-6.24-7.29,0,0-.8-3,2.73-5.53a25.52,25.52,0,0,0,2.91-2.68s7.49-2.6,9-3.2c0,0,3,1.87,5.08,1.6,0,0,2.55-.94,2.69-1.36,0,0-3.56.08-5.23-1.28,0,0,11.64-4.15,13.11-4.35,0,0,10.6,8,14.34,10.67,0,0,15.56,13.08,25.66,7.06,0,0-2.58,1.11-11.72-6,0,0-6.33-5.7-8.69-11.43a15.3,15.3,0,0,1-1.21-9s1.63-10.74,7.7-18.7c0,0,5-6.62,9-8.36,0,0-4-2.53-13,3.74,0,0-5.91,4-14.8,17.57,0,0-4.29,6.43-7.91,8.31l-13.57-2a7.5,7.5,0,0,1,3.9-2.71,7.05,7.05,0,0,0-3-.19,17.52,17.52,0,0,0-2.86,2.37s-32-4.42-51.36-4.88Z"/><path d="M459.13,72.82a11.83,11.83,0,0,0,1.51-1.21,3.61,3.61,0,0,0-.37-1.14s-.25-.92-.63-1.17c0,0-1.77-2.06-2.63-2.82A5.91,5.91,0,0,1,456,65a10.22,10.22,0,0,0-2.28-3.74,8.43,8.43,0,0,0-1-1.2s-.67-1-1-1.14a20.61,20.61,0,0,0-6-4.34s-.06-1.43-.7-1.84a.75.75,0,0,0-.41-.51s0,.6-.6,0a3.33,3.33,0,0,0-1.39-1.68s.13.7-.19.6a6.82,6.82,0,0,0-2.16-1.84s.54,1,.22,1.14c0,0-1.2-1.55-2-1.52,0,0,.7,1,.38,1.2a5.83,5.83,0,0,0-2.25-1.77s-.48-.16.25.67c0,0,.38.57,0,.57,0,0-.92-1.33-2-1.39a.64.64,0,0,0,.19.48s.54.67.16.7A5.73,5.73,0,0,0,432.79,48s-.29.1.35.6c0,0,.76.7.32,1,0,0-1.58-1.58-2.69-1.46,0,0-.16.16.29.54,0,0,.89.7.44.79A8.64,8.64,0,0,1,430,48.6a2.53,2.53,0,0,0-1-.35s-.44,0,0,.38c0,0,1.08,1,.57,1.08,0,0-.38.06-1.27-.67a3,3,0,0,0-1.71-.73s-.6-.16.13.44c0,0,1,1,.79,1.08,0,0-.44.19-1.15-.41a3.07,3.07,0,0,0-1.89-.6s-.1.16.22.44c0,0,1.2.67,1,1,0,0-.48.19-1.36-.41a3.42,3.42,0,0,0-2.09-.67s-.32.19.32.41a8.81,8.81,0,0,0,1.39,1.11s-.44.16-1.79-.48a4.7,4.7,0,0,0-1.82-.54s-.29,0,.44.51a2.81,2.81,0,0,0,.63.67s.1.32-.82-.19a4.31,4.31,0,0,0-2.09-.7s-.51.06.19.48l1,.57a.79.79,0,0,1-.73-.06,11.13,11.13,0,0,0-2.41-.7s-.32.16.29.41l.44.57a5,5,0,0,1-1.55-.48,2.63,2.63,0,0,0-1-.29s0,.67-.51.54c0,0-1.36-.44-1.49,0,0,0-1-.35-1.24,0,0,0-1.49-.25-1.71,0,0,0-1.39-.32-1.3-.1,0,0-1.65-.19-1.62.06,0,0-.86-.22-.92-.1s-1.55-.35-1.68,0c0,0-1.84-.1-1.9.16a11.11,11.11,0,0,0-2.28,0s-1.33-.13-1.17.06a10.94,10.94,0,0,0-2.05-.06v.14s-3.2-.14-3.68.31a14.21,14.21,0,0,1,3.84.29,14.83,14.83,0,0,0,2,.7s.76.44.35.6l.54.54s1.08.63.67.79c0,0,.44.6.29.7,0,0,.92.82.6,1.08l.35.48s1.55,1.14,1.08,1.39l.44.54s1.36.79,1,1.11l.57.64s1.65.72,1.2,1a4.56,4.56,0,0,0,1.3.6l3.49,0s-.13.41-3.58.6c0,0-3.17.1-4.28-.51,0,0-6.81-3.23-9.57-2.92l.41.22s-3.8-.48-4.85.51l.7.19-1-.06a5,5,0,0,0-1.93,2l1.46.22-1.62,0a5,5,0,0,0-.63,2.66l.63.06-.68.13a6.05,6.05,0,0,0,.33,3.11l.89.29-.76.06a8.59,8.59,0,0,0,1.84,2.76h.95l-.72.18a3.81,3.81,0,0,0,2.25,1.07l1-.16-.63.31a18.63,18.63,0,0,0,3.45,0,46.18,46.18,0,0,0,5.29-1s3.53-.87,4.26-.65c0,0,4.36.68,5.41,2.61a2.85,2.85,0,0,1-2.09-.48,4.55,4.55,0,0,0-3.23-.86s-.16.32-1,.29a.55.55,0,0,1-.6.41,6.33,6.33,0,0,1-1.46.82,5.23,5.23,0,0,1-1.81.82s-1.39.29-1.24.73c0,0-.73.17-.92.58a11,11,0,0,1-2.54.61s4.88.38,6.4,1.27h-1a32.75,32.75,0,0,0,4.46,1.49s2.66.6,3,1.1a15.63,15.63,0,0,0,2.79.76h-.7a4.7,4.7,0,0,0,2.73.71s2.54-.45,1.11.34a7.66,7.66,0,0,0,2.22-.23,3.17,3.17,0,0,0,2.22-.16l1.33-.54a3.78,3.78,0,0,1,1.2.09s7.83,1.58,10.65,1.17c0,0-1.24.86-1.24,1.27,0,0-1.58,1.63-1.55,2,0,0-1.49,1.18-1.68,1.85h.35a9.89,9.89,0,0,1-4,1.29,34.52,34.52,0,0,0,9.51-2l1.36-.45.63-.22-.32.28a5.2,5.2,0,0,0,1.77-.76l4.47-3.65a32,32,0,0,0,11.6-3.42,8.26,8.26,0,0,0,2.12-1.36,11.16,11.16,0,0,1,2.53-1.57,11.42,11.42,0,0,0,3.11-1.72s.38,0,.67-.67l.39-1.08A3.57,3.57,0,0,0,459.13,72.82Z"/><path d="M530.13,127.82a11.83,11.83,0,0,0,1.51-1.21,3.61,3.61,0,0,0-.37-1.14s-.25-.92-.63-1.17c0,0-1.77-2.06-2.63-2.82a5.91,5.91,0,0,1-1-1.46,10.22,10.22,0,0,0-2.28-3.74,8.43,8.43,0,0,0-1-1.2s-.67-1-1-1.14a20.61,20.61,0,0,0-6-4.34s-.06-1.43-.7-1.84a.75.75,0,0,0-.41-.51s0,.6-.6,0a3.33,3.33,0,0,0-1.39-1.68s.13.7-.19.6a6.82,6.82,0,0,0-2.16-1.84s.54,1,.22,1.14c0,0-1.2-1.55-2-1.52,0,0,.7,1,.38,1.2a5.83,5.83,0,0,0-2.25-1.77s-.48-.16.25.67c0,0,.38.57,0,.57,0,0-.92-1.33-2-1.39a.64.64,0,0,0,.19.48s.54.67.16.7a5.73,5.73,0,0,0-2.44-1.39s-.29.1.35.6c0,0,.76.7.32,1,0,0-1.58-1.58-2.69-1.46,0,0-.16.16.29.54,0,0,.89.7.44.79a8.64,8.64,0,0,1-1.52-.92,2.53,2.53,0,0,0-1-.35s-.44,0,0,.38c0,0,1.08,1,.57,1.08,0,0-.38.06-1.27-.67a3,3,0,0,0-1.71-.73s-.6-.16.13.44c0,0,1,1,.79,1.08,0,0-.44.19-1.15-.41a3.07,3.07,0,0,0-1.89-.6s-.1.16.22.44c0,0,1.2.67,1,1,0,0-.48.19-1.36-.41a3.42,3.42,0,0,0-2.09-.67s-.32.19.32.41a8.81,8.81,0,0,0,1.39,1.11s-.44.16-1.79-.48a4.7,4.7,0,0,0-1.82-.54s-.29,0,.44.51a2.81,2.81,0,0,0,.63.67s.1.32-.82-.19a4.31,4.31,0,0,0-2.09-.7s-.51.06.19.48l1,.57a.79.79,0,0,1-.73-.06,11.13,11.13,0,0,0-2.41-.7s-.32.16.29.41l.44.57a5,5,0,0,1-1.55-.48,2.63,2.63,0,0,0-1-.29s0,.67-.51.54c0,0-1.36-.44-1.49,0,0,0-1-.35-1.24,0,0,0-1.49-.25-1.71,0,0,0-1.39-.32-1.3-.1,0,0-1.65-.19-1.62.06,0,0-.86-.22-.92-.1s-1.55-.35-1.68,0c0,0-1.84-.1-1.9.16a11.11,11.11,0,0,0-2.28,0s-1.33-.13-1.17.06a10.94,10.94,0,0,0-2.05-.06v.14s-3.2-.14-3.68.31a14.21,14.21,0,0,1,3.84.29,14.83,14.83,0,0,0,2,.7s.76.44.35.6l.54.54s1.08.63.67.79c0,0,.44.6.29.7,0,0,.92.82.6,1.08l.35.48s1.55,1.14,1.08,1.39l.44.54s1.36.79,1,1.11l.57.64s1.65.72,1.2,1a4.56,4.56,0,0,0,1.3.6l3.49,0s-.13.41-3.58.6c0,0-3.17.1-4.28-.51,0,0-6.81-3.23-9.57-2.92l.41.22s-3.8-.48-4.85.51l.7.19-1-.06a5,5,0,0,0-1.93,2l1.46.22-1.62,0a5,5,0,0,0-.63,2.66l.63.06-.68.13a6.05,6.05,0,0,0,.33,3.11l.89.29-.76.06a8.59,8.59,0,0,0,1.84,2.76h.95l-.72.18a3.81,3.81,0,0,0,2.25,1.07l1-.16-.63.31a18.63,18.63,0,0,0,3.45,0,46.18,46.18,0,0,0,5.29-1s3.53-.87,4.26-.65c0,0,4.36.68,5.41,2.61a2.85,2.85,0,0,1-2.09-.48,4.55,4.55,0,0,0-3.23-.86s-.16.32-1,.29a.55.55,0,0,1-.6.41,6.33,6.33,0,0,1-1.46.82,5.23,5.23,0,0,1-1.81.82s-1.39.29-1.24.73c0,0-.73.17-.92.58a11,11,0,0,1-2.54.61s4.88.38,6.4,1.27h-1a32.75,32.75,0,0,0,4.46,1.49s2.66.6,3,1.1a15.63,15.63,0,0,0,2.79.76h-.7a4.7,4.7,0,0,0,2.73.71s2.54-.45,1.11.34a7.66,7.66,0,0,0,2.22-.23,3.17,3.17,0,0,0,2.22-.16l1.33-.54a3.78,3.78,0,0,1,1.2.09s7.83,1.58,10.65,1.17c0,0-1.24.86-1.24,1.27,0,0-1.58,1.63-1.55,2,0,0-1.49,1.18-1.68,1.85h.35a9.89,9.89,0,0,1-4,1.29,34.52,34.52,0,0,0,9.51-2l1.36-.45.63-.22-.32.28a5.2,5.2,0,0,0,1.77-.76l4.47-3.65a32,32,0,0,0,11.6-3.42,8.26,8.26,0,0,0,2.12-1.36,11.16,11.16,0,0,1,2.53-1.57,11.42,11.42,0,0,0,3.11-1.72s.38,0,.67-.67l.39-1.08A3.57,3.57,0,0,0,530.13,127.82Z"/><path d="M437.91,141.46a8.57,8.57,0,0,0,1.09-.88,2.62,2.62,0,0,0-.27-.83s-.18-.67-.46-.85c0,0-1.28-1.49-1.9-2a4.28,4.28,0,0,1-.76-1.06A7.4,7.4,0,0,0,434,133.1a6.11,6.11,0,0,0-.73-.87s-.48-.76-.69-.83a14.93,14.93,0,0,0-4.36-3.14s0-1-.5-1.33a.54.54,0,0,0-.3-.37s0,.44-.44,0a2.41,2.41,0,0,0-1-1.22s.09.5-.14.44a4.94,4.94,0,0,0-1.56-1.33s.39.69.16.83c0,0-.87-1.12-1.45-1.1,0,0,.5.69.28.87a4.22,4.22,0,0,0-1.63-1.29s-.34-.11.18.48c0,0,.28.41,0,.41,0,0-.67-1-1.45-1a.47.47,0,0,0,.14.34s.39.48.11.5a4.15,4.15,0,0,0-1.77-1s-.21.07.25.44c0,0,.55.5.23.76,0,0-1.15-1.15-2-1.06,0,0-.11.11.21.39,0,0,.64.5.32.57a6.26,6.26,0,0,1-1.1-.67,1.83,1.83,0,0,0-.69-.25s-.32,0,0,.28c0,0,.78.73.41.78,0,0-.28,0-.92-.48a2.18,2.18,0,0,0-1.24-.53s-.44-.11.09.32c0,0,.73.69.57.78,0,0-.32.14-.83-.3a2.22,2.22,0,0,0-1.37-.44s-.07.11.16.32c0,0,.87.48.69.71,0,0-.34.14-1-.3a2.48,2.48,0,0,0-1.51-.48s-.23.14.23.3a6.38,6.38,0,0,0,1,.8s-.32.11-1.3-.34a3.41,3.41,0,0,0-1.32-.39s-.21,0,.32.37a2,2,0,0,0,.46.48s.07.23-.6-.14a3.12,3.12,0,0,0-1.51-.5s-.37,0,.14.34l.69.41a.58.58,0,0,1-.53,0,8.06,8.06,0,0,0-1.74-.5s-.23.11.21.3l.32.41a3.63,3.63,0,0,1-1.12-.34,1.91,1.91,0,0,0-.76-.21s0,.48-.37.39c0,0-1-.32-1.08,0,0,0-.76-.25-.9,0,0,0-1.08-.18-1.24,0,0,0-1-.23-.94-.07,0,0-1.19-.14-1.17,0,0,0-.62-.16-.67-.07s-1.12-.25-1.22,0c0,0-1.33-.07-1.38.11a8,8,0,0,0-1.65,0s-1-.09-.85,0a7.92,7.92,0,0,0-1.49,0v.1s-2.32-.1-2.66.22a10.29,10.29,0,0,1,2.78.21,10.74,10.74,0,0,0,1.47.5s.55.32.25.44l.39.39s.78.46.48.57c0,0,.32.44.21.5s.67.6.44.78l.25.34s1.12.83.78,1l.32.39s1,.57.76.8l.41.47s1.19.52.87.73a3.3,3.3,0,0,0,.94.44l2.52,0s-.09.3-2.59.44a9.26,9.26,0,0,1-3.1-.37s-4.93-2.34-6.93-2.11l.3.16s-2.75-.34-3.51.37l.5.14-.73,0a3.64,3.64,0,0,0-1.4,1.45l1.06.16-1.17,0a3.65,3.65,0,0,0-.46,1.93l.46,0-.49.09a4.38,4.38,0,0,0,.24,2.25l.64.21-.55,0a6.22,6.22,0,0,0,1.33,2h.69l-.52.13a2.76,2.76,0,0,0,1.63.77l.71-.12-.46.23a13.49,13.49,0,0,0,2.5,0,33.44,33.44,0,0,0,3.83-.73,13.5,13.5,0,0,1,3.09-.47s3.16.49,3.91,1.89a2.06,2.06,0,0,1-1.51-.34,3.29,3.29,0,0,0-2.34-.62s-.11.23-.71.21a.4.4,0,0,1-.44.3,4.58,4.58,0,0,1-1.06.6,3.79,3.79,0,0,1-1.31.6s-1,.21-.9.53c0,0-.53.12-.67.42a8,8,0,0,1-1.84.44s3.53.27,4.64.92H395a23.71,23.71,0,0,0,3.23,1.08s1.93.43,2.16.8a11.32,11.32,0,0,0,2,.55h-.51a3.41,3.41,0,0,0,2,.51s1.84-.33.8.25a5.55,5.55,0,0,0,1.61-.16,2.3,2.3,0,0,0,1.61-.12l1-.39a2.74,2.74,0,0,1,.87.07s5.67,1.15,7.71.85c0,0-.9.62-.9.92,0,0-1.15,1.18-1.12,1.48,0,0-1.08.86-1.22,1.34h.25a7.16,7.16,0,0,1-2.91.93,25,25,0,0,0,6.89-1.45l1-.32.46-.16-.23.21a3.76,3.76,0,0,0,1.29-.55l3.24-2.64a23.18,23.18,0,0,0,8.4-2.48,6,6,0,0,0,1.54-1,8.08,8.08,0,0,1,1.84-1.14,8.27,8.27,0,0,0,2.25-1.25s.28,0,.48-.48l.28-.78A2.59,2.59,0,0,0,437.91,141.46Z"/><path d="M512.13,192.82a11.83,11.83,0,0,0,1.51-1.21,3.61,3.61,0,0,0-.37-1.14s-.25-.92-.63-1.17c0,0-1.77-2.06-2.63-2.82a5.91,5.91,0,0,1-1-1.46,10.22,10.22,0,0,0-2.28-3.74,8.43,8.43,0,0,0-1-1.2s-.67-1-1-1.14a20.61,20.61,0,0,0-6-4.34s-.06-1.43-.7-1.84a.75.75,0,0,0-.41-.51s0,.6-.6,0a3.33,3.33,0,0,0-1.39-1.68s.13.7-.19.6a6.82,6.82,0,0,0-2.16-1.84s.54,1,.22,1.14c0,0-1.2-1.55-2-1.52,0,0,.7,1,.38,1.2a5.83,5.83,0,0,0-2.25-1.77s-.48-.16.25.67c0,0,.38.57,0,.57,0,0-.92-1.33-2-1.39a.64.64,0,0,0,.19.48s.54.67.16.7a5.73,5.73,0,0,0-2.44-1.39s-.29.1.35.6c0,0,.76.7.32,1,0,0-1.58-1.58-2.69-1.46,0,0-.16.16.29.54,0,0,.89.7.44.79a8.64,8.64,0,0,1-1.52-.92,2.53,2.53,0,0,0-1-.35s-.44,0,0,.38c0,0,1.08,1,.57,1.08,0,0-.38.06-1.27-.67a3,3,0,0,0-1.71-.73s-.6-.16.13.44c0,0,1,1,.79,1.08,0,0-.44.19-1.15-.41a3.07,3.07,0,0,0-1.89-.6s-.1.16.22.44c0,0,1.2.67,1,1,0,0-.48.19-1.36-.41a3.42,3.42,0,0,0-2.09-.67s-.32.19.32.41a8.81,8.81,0,0,0,1.39,1.11s-.44.16-1.79-.48a4.7,4.7,0,0,0-1.82-.54s-.29,0,.44.51a2.81,2.81,0,0,0,.63.67s.1.32-.82-.19a4.31,4.31,0,0,0-2.09-.7s-.51.06.19.48l1,.57a.79.79,0,0,1-.73-.06,11.13,11.13,0,0,0-2.41-.7s-.32.16.29.41l.44.57a5,5,0,0,1-1.55-.48,2.63,2.63,0,0,0-1-.29s0,.67-.51.54c0,0-1.36-.44-1.49,0,0,0-1-.35-1.24,0,0,0-1.49-.25-1.71,0,0,0-1.39-.32-1.3-.1,0,0-1.65-.19-1.62.06,0,0-.86-.22-.92-.1s-1.55-.35-1.68,0c0,0-1.84-.1-1.9.16a11.11,11.11,0,0,0-2.28,0s-1.33-.13-1.17.06a10.94,10.94,0,0,0-2.05-.06v.14s-3.2-.14-3.68.31a14.21,14.21,0,0,1,3.84.29,14.83,14.83,0,0,0,2,.7s.76.44.35.6l.54.54s1.08.63.67.79c0,0,.44.6.29.7,0,0,.92.82.6,1.08l.35.48s1.55,1.14,1.08,1.39l.44.54s1.36.79,1,1.11l.57.64s1.65.72,1.2,1a4.56,4.56,0,0,0,1.3.6l3.49,0s-.13.41-3.58.6c0,0-3.17.1-4.28-.51,0,0-6.81-3.23-9.57-2.92l.41.22s-3.8-.48-4.85.51l.7.19-1-.06a5,5,0,0,0-1.93,2l1.46.22-1.62,0a5,5,0,0,0-.63,2.66l.63.06-.68.13a6.05,6.05,0,0,0,.33,3.11l.89.29-.76.06a8.59,8.59,0,0,0,1.84,2.76h.95l-.72.18a3.81,3.81,0,0,0,2.25,1.07l1-.16-.63.31a18.63,18.63,0,0,0,3.45,0,46.18,46.18,0,0,0,5.29-1s3.53-.87,4.26-.65c0,0,4.36.68,5.41,2.61a2.85,2.85,0,0,1-2.09-.48,4.55,4.55,0,0,0-3.23-.86s-.16.32-1,.29a.55.55,0,0,1-.6.41,6.33,6.33,0,0,1-1.46.82,5.23,5.23,0,0,1-1.81.82s-1.39.29-1.24.73c0,0-.73.17-.92.58a11,11,0,0,1-2.54.61s4.88.38,6.4,1.27h-1a32.75,32.75,0,0,0,4.46,1.49s2.66.6,3,1.1a15.63,15.63,0,0,0,2.79.76h-.7a4.7,4.7,0,0,0,2.73.71s2.54-.45,1.11.34a7.66,7.66,0,0,0,2.22-.23,3.17,3.17,0,0,0,2.22-.16l1.33-.54a3.78,3.78,0,0,1,1.2.09s7.83,1.58,10.65,1.17c0,0-1.24.86-1.24,1.27,0,0-1.58,1.63-1.55,2,0,0-1.49,1.18-1.68,1.85h.35a9.89,9.89,0,0,1-4,1.29,34.52,34.52,0,0,0,9.51-2l1.36-.45.63-.22-.32.28a5.2,5.2,0,0,0,1.77-.76l4.47-3.65a32,32,0,0,0,11.6-3.42,8.26,8.26,0,0,0,2.12-1.36,11.16,11.16,0,0,1,2.53-1.57,11.42,11.42,0,0,0,3.11-1.72s.38,0,.67-.67l.39-1.08A3.57,3.57,0,0,0,512.13,192.82Z"/><path d="M383.13,192.82a11.83,11.83,0,0,0,1.51-1.21,3.61,3.61,0,0,0-.37-1.14s-.25-.92-.63-1.17c0,0-1.77-2.06-2.63-2.82a5.91,5.91,0,0,1-1-1.46,10.22,10.22,0,0,0-2.28-3.74,8.43,8.43,0,0,0-1-1.2s-.67-1-1-1.14a20.61,20.61,0,0,0-6-4.34s-.06-1.43-.7-1.84a.75.75,0,0,0-.41-.51s0,.6-.6,0a3.33,3.33,0,0,0-1.39-1.68s.13.7-.19.6a6.82,6.82,0,0,0-2.16-1.84s.54,1,.22,1.14c0,0-1.2-1.55-2-1.52,0,0,.7,1,.38,1.2a5.83,5.83,0,0,0-2.25-1.77s-.48-.16.25.67c0,0,.38.57,0,.57,0,0-.92-1.33-2-1.39a.64.64,0,0,0,.19.48s.54.67.16.7a5.73,5.73,0,0,0-2.44-1.39s-.29.1.35.6c0,0,.76.7.32,1,0,0-1.58-1.58-2.69-1.46,0,0-.16.16.29.54,0,0,.89.7.44.79a8.64,8.64,0,0,1-1.52-.92,2.53,2.53,0,0,0-1-.35s-.44,0,0,.38c0,0,1.08,1,.57,1.08,0,0-.38.06-1.27-.67a3,3,0,0,0-1.71-.73s-.6-.16.13.44c0,0,1,1,.79,1.08,0,0-.44.19-1.15-.41a3.07,3.07,0,0,0-1.89-.6s-.1.16.22.44c0,0,1.2.67,1,1,0,0-.48.19-1.36-.41a3.42,3.42,0,0,0-2.09-.67s-.32.19.32.41a8.81,8.81,0,0,0,1.39,1.11s-.44.16-1.79-.48a4.7,4.7,0,0,0-1.82-.54s-.29,0,.44.51a2.81,2.81,0,0,0,.63.67s.1.32-.82-.19a4.31,4.31,0,0,0-2.09-.7s-.51.06.19.48l1,.57a.79.79,0,0,1-.73-.06,11.13,11.13,0,0,0-2.41-.7s-.32.16.29.41l.44.57a5,5,0,0,1-1.55-.48,2.63,2.63,0,0,0-1-.29s0,.67-.51.54c0,0-1.36-.44-1.49,0,0,0-1-.35-1.24,0,0,0-1.49-.25-1.71,0,0,0-1.39-.32-1.3-.1,0,0-1.65-.19-1.62.06,0,0-.86-.22-.92-.1s-1.55-.35-1.68,0c0,0-1.84-.1-1.9.16a11.11,11.11,0,0,0-2.28,0s-1.33-.13-1.17.06a10.94,10.94,0,0,0-2.05-.06v.14s-3.2-.14-3.68.31a14.21,14.21,0,0,1,3.84.29,14.83,14.83,0,0,0,2,.7s.76.44.35.6l.54.54s1.08.63.67.79c0,0,.44.6.29.7,0,0,.92.82.6,1.08l.35.48s1.55,1.14,1.08,1.39l.44.54s1.36.79,1,1.11l.57.64s1.65.72,1.2,1a4.56,4.56,0,0,0,1.3.6l3.49,0s-.13.41-3.58.6c0,0-3.17.1-4.28-.51,0,0-6.81-3.23-9.57-2.92l.41.22s-3.8-.48-4.85.51l.7.19-1-.06a5,5,0,0,0-1.93,2l1.46.22-1.62,0a5,5,0,0,0-.63,2.66l.63.06-.68.13a6.05,6.05,0,0,0,.33,3.11l.89.29-.76.06a8.59,8.59,0,0,0,1.84,2.76h.95l-.72.18a3.81,3.81,0,0,0,2.25,1.07l1-.16-.63.31a18.63,18.63,0,0,0,3.45,0,46.18,46.18,0,0,0,5.29-1s3.53-.87,4.26-.65c0,0,4.36.68,5.41,2.61a2.85,2.85,0,0,1-2.09-.48,4.55,4.55,0,0,0-3.23-.86s-.16.32-1,.29a.55.55,0,0,1-.6.41,6.33,6.33,0,0,1-1.46.82,5.23,5.23,0,0,1-1.81.82s-1.39.29-1.24.73c0,0-.73.17-.92.58a11,11,0,0,1-2.54.61s4.88.38,6.4,1.27h-1a32.75,32.75,0,0,0,4.46,1.49s2.66.6,3,1.1a15.63,15.63,0,0,0,2.79.76h-.7a4.7,4.7,0,0,0,2.73.71s2.54-.45,1.11.34a7.66,7.66,0,0,0,2.22-.23,3.17,3.17,0,0,0,2.22-.16l1.33-.54a3.78,3.78,0,0,1,1.2.09s7.83,1.58,10.65,1.17c0,0-1.24.86-1.24,1.27,0,0-1.58,1.63-1.55,2,0,0-1.49,1.18-1.68,1.85h.35a9.89,9.89,0,0,1-4,1.29,34.52,34.52,0,0,0,9.51-2l1.36-.45.63-.22-.32.28a5.2,5.2,0,0,0,1.77-.76l4.47-3.65a32,32,0,0,0,11.6-3.42,8.26,8.26,0,0,0,2.12-1.36,11.16,11.16,0,0,1,2.53-1.57,11.42,11.42,0,0,0,3.11-1.72s.38,0,.67-.67l.39-1.08A3.57,3.57,0,0,0,383.13,192.82Z"/><text class="cls-3" transform="translate(712.81 223.88)"><tspan class="cls-4">Built for the adventurer</tspan><tspan class="cls-5"><tspan class="cls-6" x="-48.02" y="42">C</tspan><tspan class="cls-7" x="-27.83" y="42">r</tspan><tspan x="-16.73" y="42">e</tspan><tspan class="cls-8" x="0.81" y="42">a</tspan><tspan class="cls-9" x="17.54" y="42">t</tspan><tspan x="28.91" y="42">e a back</tspan><tspan class="cls-9" x="147.03" y="42">g</tspan><tspan class="cls-7" x="166.39" y="42">r</tspan><tspan x="177.48" y="42">ound fitting of </tspan><tspan class="cls-7" x="395.5" y="42">y</tspan><tspan x="411.63" y="42">our educ</tspan><tspan x="558.11" y="42">-</tspan><tspan x="-48.02" y="84">tion. </tspan><tspan class="cls-10" x="25.06" y="84">M</tspan><tspan x="53.41" y="84">old the</tspan><tspan class="cls-11" x="156.59" y="84"> </tspan><tspan x="162.75" y="84">VR e</tspan><tspan class="cls-12" x="226.06" y="84">n</tspan><tspan x="245.03" y="84">vi</tspan><tspan class="cls-7" x="270.06" y="84">r</tspan><tspan x="281.15" y="84">onme</tspan><tspan class="cls-13" x="366.52" y="84">n</tspan><tspan x="385.8" y="84">t </tspan><tspan class="cls-9" x="404.81" y="84">t</tspan><tspan x="416.18" y="84">o suit </tspan><tspan class="cls-7" x="503.16" y="84">y</tspan><tspan x="519.29" y="84">o</tspan><tspan class="cls-14" x="538.51" y="84">u</tspan><tspan x="557.51" y="84">.</tspan></tspan></text><text class="cls-15" transform="translate(600.68 56.52)"><tspan class="cls-16">T</tspan><tspan x="37.44" y="0">o the depths of the ocean</tspan><tspan class="cls-17" x="710.33" y="0">,</tspan></text><text class="cls-3" transform="translate(804.05 449.84)"><tspan class="cls-4">Learn with ease</tspan><tspan class="cls-5"><tspan class="cls-18" x="-139.05" y="42">I</tspan><tspan x="-130.33" y="42">n</tspan><tspan class="cls-9" x="-110.91" y="42">c</tspan><tspan x="-95.44" y="42">o</tspan><tspan class="cls-19" x="-76.22" y="42">r</tspan><tspan x="-64.64" y="42">po</tspan><tspan class="cls-20" x="-25.51" y="42">r</tspan><tspan class="cls-8" x="-14.24" y="42">a</tspan><tspan class="cls-21" x="2.49" y="42">t</tspan><tspan x="13.87" y="42">e 3D models i</tspan><tspan class="cls-8" x="210.92" y="42">n</tspan><tspan class="cls-9" x="230.2" y="42">t</tspan><tspan x="241.57" y="42">o </tspan><tspan class="cls-7" x="268.21" y="42">y</tspan><tspan x="284.34" y="42">our cus</tspan><tspan class="cls-9" x="390.53" y="42">t</tspan><tspan x="401.91" y="42">om</tspan><tspan x="450.31" y="42">-</tspan><tspan x="-139.05" y="84">i</tspan><tspan class="cls-22" x="-130.86" y="84">z</tspan><tspan x="-116.12" y="84">ed e</tspan><tspan class="cls-12" x="-53.89" y="84">n</tspan><tspan x="-34.92" y="84">vi</tspan><tspan class="cls-7" x="-9.9" y="84">r</tspan><tspan x="1.2" y="84">onme</tspan><tspan class="cls-13" x="86.56" y="84">n</tspan><tspan class="cls-23" x="105.85" y="84">t</tspan><tspan x="117.33" y="84">. </tspan><tspan class="cls-24" x="131.99" y="84">I</tspan><tspan x="140.71" y="84">mmerse </tspan><tspan class="cls-25" x="266.88" y="84">y</tspan><tspan x="283.02" y="84">ourself in </tspan><tspan x="-139.05" y="126">lea</tspan><tspan class="cls-26" x="-96.38" y="126">r</tspan><tspan x="-84.8" y="126">nin</tspan><tspan class="cls-27" x="-37.76" y="126">g</tspan><tspan x="-18.72" y="126">.</tspan></tspan></text></svg>