<svg id="Layer_1" data-name="Layer 1" xmlns="http://www.w3.org/2000/svg" viewBox="0 0 2756 1230.59"><defs><style>.cls-1{fill:#754c24;}.cls-17,.cls-2,.cls-24,.cls-25,.cls-30,.cls-9{fill:none;}.cls-3{fill:#999;}.cls-14,.cls-4{fill:#f7b175;}.cls-5{fill:#2196f3;}.cls-6{fill:#c1272d;}.cls-7{fill:#fff;}.cls-8{fill:#9e9e9e;}.cls-9{stroke:#9e9e9e;stroke-linecap:round;stroke-linejoin:round;stroke-width:0;}.cls-10{fill:#424242;}.cls-11,.cls-26{fill:gray;}.cls-12{fill:#4caf50;}.cls-13{stroke:#000;}.cls-13,.cls-14,.cls-15,.cls-16,.cls-17,.cls-24,.cls-25,.cls-26,.cls-30{stroke-miterlimit:10;}.cls-14{stroke:#f7b175;}.cls-15,.cls-29{fill:#ff394f;}.cls-15,.cls-17,.cls-30{stroke:#ff394f;}.cls-16{fill:#00bcd4;stroke:#00bcd4;}.cls-17{stroke-width:4px;}.cls-18{fill:#42210b;}.cls-19{fill:#593609;}.cls-20{fill:#fcc062;}.cls-21{fill:#f9f;}.cls-22{font-size:26.94px;font-family:BradleyHandITCTT-Bold, Bradley Hand;font-weight:700;}.cls-23{fill:#f2f2f2;}.cls-24,.cls-25,.cls-26{stroke:gray;stroke-width:6px;}.cls-25{stroke-dasharray:11.95 5.97;}.cls-26{stroke-dasharray:12 6;}.cls-27{fill:#b3b3b3;}.cls-28{fill:#ff9800;}.cls-30{stroke-width:10px;}.cls-31{fill:#ed1c24;}.cls-32{fill:#d4145a;}.cls-33{font-size:123.72px;font-family:Phosphate-Inline, Phosphate;}.cls-34{letter-spacing:0.05em;}.cls-35{font-size:77.33px;font-family:Roboto-Regular, Roboto;}.cls-36{letter-spacing:0.02em;}.cls-37{letter-spacing:-0.01em;}.cls-38{letter-spacing:-0.02em;}.cls-39{letter-spacing:0.02em;}.cls-40{letter-spacing:-0.07em;}</style></defs><title>vydenInformational</title><rect x="1718.1" y="459.95" width="486.39" height="202.01"/><path class="cls-1" d="M2231.5,758.49v196H1751.1v-196H2231.5m6-6H1745.1v208H2237.5v-208Z" transform="translate(-30 -295.54)"/><path class="cls-2" d="M2609.78,590.67a35.42,35.42,0,0,1-26.26.27v98.13h26.26Z" transform="translate(-30 -295.54)"/><path class="cls-3" d="M2614,694.08c-2.35,0-4.27-1.47-4.27-3.28v-1.74h-26.26v1.74c0,1.8-1.92,3.28-4.27,3.28s-4.27-1.47-4.27-3.28v-1.74h-19.05c-3.42,0-6.22,2.15-6.22,4.78s2.8,4.78,6.22,4.78H2638c3.42,0,6.22-2.15,6.22-4.78s-2.8-4.78-6.22-4.78h-19.71v1.74C2618.31,692.61,2616.39,694.08,2614,694.08Z" transform="translate(-30 -295.54)"/><path class="cls-4" d="M2542.24,543.63h-9.89l0,77.68c0,4.31,5.14,7.83,11.42,7.84h4.76c6.28,0,11.43-3.52,11.43-7.83l0-50.28C2549.61,564.18,2542.93,554.47,2542.24,543.63Z" transform="translate(-30 -295.54)"/><path class="cls-4" d="M2651.07,543.63c-.6,9.38-5.68,17.9-13.72,24.46l0,53.21c0,4.31,5.14,7.83,11.42,7.84h4.76c6.28,0,11.43-3.52,11.43-7.83l0-77.68h-13.91Z" transform="translate(-30 -295.54)"/><path class="cls-5" d="M2651.07,543.63h13.86V523.4c0-3-5.13-5.52-11.4-5.52h-4.75a19.77,19.77,0,0,0-7.35,1.31,45.57,45.57,0,0,0-5.12-4.59c-8.33,9.54-22.5,15.85-38.5,15.85h0c-16.59,0-31.2-6.78-39.39-16.91a47,47,0,0,0-5.65,4.75,22.18,22.18,0,0,0-4.24-.4h-4.75c-6.27,0-11.41,2.48-11.41,5.51v20.23h9.89c.69,10.85,7.38,20.55,17.7,27.41a57.61,57.61,0,0,0,10,5.26,65.22,65.22,0,0,0,7.51,2.56,5.28,5.28,0,0,1,1.81-.32,4.64,4.64,0,0,1,3.63,1.59,74.74,74.74,0,0,0,27.52,0,4.64,4.64,0,0,1,3.63-1.59,5.28,5.28,0,0,1,1.81.32,65.58,65.58,0,0,0,6.8-2.26,55.47,55.47,0,0,0,14.69-8.5C2645.39,561.53,2650.47,553,2651.07,543.63Z" transform="translate(-30 -295.54)"/><path d="M2614,578.53a4.64,4.64,0,0,0-3.63,1.59,74.74,74.74,0,0,1-27.52,0,4.64,4.64,0,0,0-3.63-1.59,5.28,5.28,0,0,0-1.81.32,65.22,65.22,0,0,1-7.51-2.56,16.76,16.76,0,0,0,5.06,9.24V690.81c0,1.8,1.92,3.28,4.27,3.28s4.27-1.47,4.27-3.28V590.94a35.42,35.42,0,0,0,26.26-.27V690.81c0,1.8,1.92,3.28,4.27,3.28s4.27-1.47,4.27-3.28V584.86a16.55,16.55,0,0,0,4.35-8.27,65.58,65.58,0,0,1-6.8,2.26A5.28,5.28,0,0,0,2614,578.53Z" transform="translate(-30 -295.54)"/><path class="cls-4" d="M2664,461.46l-4,5.59A13.82,13.82,0,0,0,2664,461.46Z" transform="translate(-30 -295.54)"/><path class="cls-4" d="M2531,462.47l-1-1.44A13.79,13.79,0,0,0,2531,462.47Z" transform="translate(-30 -295.54)"/><path d="M2597.8,408.3h0c-13.28,0-25.29,4.35-33.76,11.29h67.53C2623.1,412.65,2611.08,408.3,2597.8,408.3Z" transform="translate(-30 -295.54)"/><path d="M2597.8,530.45h0c16,0,30.17-6.31,38.5-15.85a29.89,29.89,0,0,0,7.83-19.73V480.66h-7.54a14.36,14.36,0,0,1-8.55,4.66h0a18.25,18.25,0,0,0-.6-4.65h-9.55a13.28,13.28,0,0,1,1,4.94c0,9.12-9.43,16.52-21.06,16.52s-21.06-7.4-21.06-16.52a13.28,13.28,0,0,1,1-4.94h-9.55a18.25,18.25,0,0,0-.6,4.65h0a14.36,14.36,0,0,1-8.55-4.66h-7.54v14.21a29.56,29.56,0,0,0,6.95,18.67C2566.6,523.66,2581.22,530.45,2597.8,530.45Z" transform="translate(-30 -295.54)"/><path class="cls-4" d="M2628.06,485.31h0a14.36,14.36,0,0,0,8.55-4.66h-9.15A18.25,18.25,0,0,1,2628.06,485.31Z" transform="translate(-30 -295.54)"/><path class="cls-4" d="M2567.55,485.32h0a18.25,18.25,0,0,1,.6-4.65H2559A14.36,14.36,0,0,0,2567.55,485.32Z" transform="translate(-30 -295.54)"/><path class="cls-4" d="M2596.77,481.26a13.79,13.79,0,0,1-4.05-.61h-15a13.28,13.28,0,0,0-1,4.94c0,9.12,9.43,16.52,21.06,16.52s21.06-7.4,21.06-16.52a13.28,13.28,0,0,0-1-4.94h-17.08A13.79,13.79,0,0,1,2596.77,481.26Zm16.48,8.49H2613a5.76,5.76,0,0,1,.26,1.68c0,2.2-1.28,4.23-3.41,5.82a22.6,22.6,0,0,1-24.07,0c-2.13-1.59-3.41-3.62-3.41-5.82a5.76,5.76,0,0,1,.26-1.68h.12V485h30.52Z" transform="translate(-30 -295.54)"/><path d="M2582.61,489.75a5.76,5.76,0,0,0-.26,1.68c0,2.2,1.28,4.23,3.41,5.82a22.6,22.6,0,0,1,24.07,0c2.13-1.59,3.41-3.62,3.41-5.82a5.76,5.76,0,0,0-.26-1.68h-30.38Z" transform="translate(-30 -295.54)"/><path class="cls-6" d="M2585.77,497.25a22.6,22.6,0,0,0,24.07,0,22.6,22.6,0,0,0-24.07,0Z" transform="translate(-30 -295.54)"/><polygon class="cls-7" points="2552.73 189.51 2552.73 194.21 2582.99 194.21 2583.25 194.21 2583.25 189.51 2552.73 189.51"/><path class="cls-6" d="M2600.83,480.66h-8.1a13.86,13.86,0,0,0,8.1,0Z" transform="translate(-30 -295.54)"/><path class="cls-8" d="M2568.15,480.66h82.31v-.08l9.59-13.53,4-5.59,5.47-7.72-19-26.84v-.08h-18.82v-3.62h-12.46v3.62h-45v-3.62h-12.46v3.62h-17.81l-19.08,26.92L2530,461l1,1.44,12.89,18.18h24.27Zm.78-40.49c8.46,0,15.31,6.07,15.38,13.57H2610c.07-7.51,6.93-13.57,15.38-13.57s15.31,6.07,15.38,13.57h0s0,.07,0,.11c0,7.56-6.89,13.68-15.39,13.68S2610,461.41,2610,453.86c0,0,0-.07,0-.11h-25.7s0,.07,0,.11c0,7.56-6.89,13.68-15.39,13.68s-15.39-6.13-15.39-13.68c0,0,0-.07,0-.11h0C2553.62,446.24,2560.48,440.17,2568.94,440.17Zm41.9,40.26H2583.1c-2.76,0-3.42-3.42-.82-4.24l2.13-.67a2.38,2.38,0,0,0,1.38-1.09l9.24-16.61a2.59,2.59,0,0,1,4.42.05l8.6,16.51a2.37,2.37,0,0,0,1.43,1.15l2.15.66C2614.25,477,2613.6,480.43,2610.83,480.43Z" transform="translate(-30 -295.54)"/><line class="cls-9" x1="2554.32" y1="158.2" x2="2580.02" y2="158.2"/><line class="cls-9" x1="2514.01" y1="158.2" x2="2523.55" y2="158.2"/><line class="cls-9" x1="2610.79" y1="158.2" x2="2620.4" y2="158.2"/><path class="cls-10" d="M2611.63,476.19l-2.15-.66a2.37,2.37,0,0,1-1.43-1.15l-8.6-16.51a2.59,2.59,0,0,0-4.42-.05l-9.24,16.61a2.38,2.38,0,0,1-1.38,1.09l-2.13.67c-2.6.82-1.94,4.24.82,4.24h27.74C2613.6,480.43,2614.25,477,2611.63,476.19Z" transform="translate(-30 -295.54)"/><path class="cls-10" d="M2553.55,453.74s0,.07,0,.11c0,7.56,6.89,13.68,15.39,13.68s15.39-6.13,15.39-13.68c0,0,0-.07,0-.11-.07-7.51-6.93-13.57-15.38-13.57S2553.62,446.24,2553.55,453.74Z" transform="translate(-30 -295.54)"/><path class="cls-10" d="M2625.41,467.54c8.5,0,15.39-6.13,15.39-13.68,0,0,0-.07,0-.11-.07-7.51-6.93-13.57-15.38-13.57s-15.31,6.07-15.38,13.57c0,0,0,.07,0,.11C2610,461.41,2616.91,467.54,2625.41,467.54Z" transform="translate(-30 -295.54)"/><polygon class="cls-10" points="2531.69 131.29 2531.69 127.67 2544.15 127.67 2544.15 131.29 2589.18 131.29 2589.18 127.67 2601.64 127.67 2601.64 131.29 2610.8 131.29 2610.8 124.05 2601.57 124.05 2534.04 124.05 2523.55 124.05 2523.55 131.29 2531.69 131.29"/><path class="cls-11" d="M2238.36,752.49" transform="translate(-30 -295.54)"/><rect class="cls-3" x="1275.37" y="413.57" width="140.97" height="11.96" rx="1.22" ry="1.22"/><path class="cls-12" d="M1326.71,534.63c0-4.39-5.11-8-11.35-8h-10.41c-6.24,0-11.35,3.59-11.35,8v26.25h33.11Z" transform="translate(-30 -295.54)"/><path class="cls-4" d="M1304.95,672.85h10.41c6.24,0,11.35-3.59,11.35-8v-104h-33.11v104C1293.59,669.27,1298.7,672.85,1304.95,672.85Z" transform="translate(-30 -295.54)"/><path class="cls-12" d="M1457.69,534.63c0-4.39-5.11-8-11.35-8h-10.41c-6.24,0-11.35,3.59-11.35,8v26.25h33.11Z" transform="translate(-30 -295.54)"/><path class="cls-4" d="M1435.93,672.85h10.41c6.24,0,11.35-3.59,11.35-8v-104h-33.11v104C1424.58,669.27,1429.68,672.85,1435.93,672.85Z" transform="translate(-30 -295.54)"/><ellipse class="cls-12" cx="1345.38" cy="264.04" rx="66.23" ry="46.52"/><rect class="cls-12" x="1302.8" y="282.65" width="85.15" height="43.2"/><path class="cls-13" d="M1374.91,648.3c16.44,0,31.47,4.22,43,11.18v-38.1H1332.8v37.52C1344.25,652.28,1358.91,648.3,1374.91,648.3Z" transform="translate(-30 -295.54)"/><rect class="cls-13" x="1369.03" y="346.45" width="18.92" height="75.09"/><rect class="cls-13" x="1302.8" y="346.45" width="18.92" height="75.09"/><ellipse class="cls-14" cx="1395.21" cy="194.35" rx="8.51" ry="8.81"/><ellipse class="cls-15" cx="1395.21" cy="194.35" rx="4.62" ry="4.78"/><ellipse class="cls-14" cx="1297.44" cy="194.35" rx="8.51" ry="8.81"/><ellipse class="cls-15" cx="1297.44" cy="194.35" rx="4.62" ry="4.78"/><path class="cls-4" d="M1424.72,515.66V452.12h-97.27v65.51h.07a4.31,4.31,0,0,0,1.69,3.13l43,34.67a6.89,6.89,0,0,0,8.25,0l43-34.67A4.08,4.08,0,0,0,1424.72,515.66Z" transform="translate(-30 -295.54)"/><rect x="1315.93" y="112.76" width="94.84" height="47.34" rx="4.82" ry="4.82"/><ellipse cx="1310.82" cy="153.81" rx="19.21" ry="19.89"/><path class="cls-16" d="M1433.72,436.76c0-10.8-8.54-19.64-19-19.64H1389l4.07,2h21.71c9.39,0,17,7.91,17,17.63v1.55l1.95,1Z" transform="translate(-30 -295.54)"/><ellipse class="cls-13" cx="1321.76" cy="194.35" rx="5.59" ry="5.79"/><ellipse class="cls-13" cx="1369.91" cy="194.35" rx="5.59" ry="5.79"/><rect class="cls-13" x="1304.01" y="176.47" width="35.99" height="9.57" rx="0.97" ry="0.97"/><rect class="cls-13" x="1348.27" y="176.97" width="35.99" height="9.57" rx="0.97" ry="0.97"/><ellipse class="cls-15" cx="1335.87" cy="210.21" rx="3.65" ry="4.03"/><ellipse class="cls-15" cx="1356.3" cy="210.21" rx="3.65" ry="4.03"/><path class="cls-17" d="M1357.59,518.91c8.46,23.18,37.37,14,37.45.16" transform="translate(-30 -295.54)"/><rect class="cls-8" x="1297.79" y="173.53" width="96.49" height="43.82"/><line class="cls-8" x1="1297.9" y1="195.45" x2="1394.28" y2="195.45"/><polygon class="cls-8" points="1280.52 195.45 1297.79 217.36 1297.79 173.53 1280.52 195.45"/><polygon class="cls-8" points="1411.5 195.45 1394.23 173.53 1394.23 217.36 1411.5 195.45"/><path class="cls-10" d="M1363.29,512.71h25.11c2.51,0,3.09-2.8.72-3.46l-1.95-.53a2.12,2.12,0,0,1-1.29-.93l-7.79-13.44a2.49,2.49,0,0,0-4,0l-8.37,13.52a2.13,2.13,0,0,1-1.25.89l-1.93.54C1360.2,509.93,1360.8,512.71,1363.29,512.71Z" transform="translate(-30 -295.54)"/><ellipse class="cls-10" cx="1320.47" cy="195.54" rx="13.93" ry="11.14"/><ellipse class="cls-10" cx="1371.6" cy="195.54" rx="13.93" ry="11.14"/><rect class="cls-10" x="1306.54" y="167.64" width="78.99" height="5.89"/><rect class="cls-8" x="1313.91" y="170.59" width="11.28" height="2.95"/><rect class="cls-8" x="1365.96" y="170.59" width="11.28" height="2.95"/><path class="cls-7" d="M2778,1100.12c0,33.4-40.89,60.48-91.34,60.48" transform="translate(-30 -295.54)"/><path class="cls-18" d="M2686.67,1167.87c-4.41,0-8-3.25-8-7.27s3.57-7.27,8-7.27c22.72,0,44-5.8,59.89-16.32,15.13-10,23.46-23.12,23.46-36.89,0-4,3.57-7.27,8-7.27s8,3.25,8,7.27c0,18.54-10.67,35.82-30,48.65C2737.35,1161.08,2712.75,1167.87,2686.67,1167.87Z" transform="translate(-30 -295.54)"/><ellipse class="cls-18" cx="2588.97" cy="873.78" rx="97.73" ry="88.98"/><rect class="cls-18" x="2481.66" y="838.89" width="49.95" height="108.75" rx="5.82" ry="5.82"/><rect class="cls-18" x="2652.2" y="838.89" width="49.95" height="108.75" rx="5.82" ry="5.82"/><ellipse class="cls-19" cx="2656.99" cy="769.97" rx="33.53" ry="30.53"/><ellipse cx="2656.99" cy="771.14" rx="20.76" ry="18.9"/><ellipse class="cls-19" cx="2522.22" cy="768.81" rx="33.53" ry="30.53"/><ellipse cx="2522.22" cy="769.97" rx="20.76" ry="18.9"/><ellipse class="cls-19" cx="2588.65" cy="778.12" rx="66.75" ry="60.77"/><ellipse class="cls-20" cx="2562.16" cy="772.59" rx="30.68" ry="28.5"/><ellipse class="cls-20" cx="2615.78" cy="772.59" rx="30.68" ry="28.5"/><ellipse class="cls-20" cx="2588.71" cy="817.37" rx="35.06" ry="32.57"/><ellipse class="cls-7" cx="2562.16" cy="772.59" rx="17.79" ry="16.52"/><ellipse cx="2562.42" cy="772.83" rx="7.73" ry="7.18"/><ellipse class="cls-7" cx="2616.04" cy="772.83" rx="18.05" ry="16.76"/><ellipse cx="2615.78" cy="773.07" rx="6.44" ry="5.99"/><ellipse class="cls-21" cx="2580.2" cy="797.5" rx="3.87" ry="3.59"/><ellipse class="cls-21" cx="2597.73" cy="797.5" rx="3.87" ry="3.59"/><ellipse class="cls-19" cx="2604.95" cy="828.15" rx="6.96" ry="6.47"/><rect class="cls-20" x="2529.05" y="916.81" width="45.23" height="30.83" rx="3.14" ry="3.14"/><rect class="cls-19" x="2514.87" y="838.89" width="49.95" height="108.75" rx="5.82" ry="5.82"/><rect class="cls-20" x="2634.3" y="1212.35" width="45.23" height="30.83" rx="3.14" ry="3.14" transform="translate(5283.82 2159.99) rotate(180)"/><rect class="cls-19" x="2643.75" y="1134.43" width="49.95" height="108.75" rx="5.82" ry="5.82" transform="translate(5307.45 2082.07) rotate(-180)"/><rect class="cls-8" x="2509.43" y="734.97" width="157.66" height="70.81"/><line class="cls-8" x1="2509.62" y1="770.38" x2="2667.1" y2="770.38"/><polygon class="cls-8" points="2481.21 770.38 2509.43 805.78 2509.43 734.97 2481.21 770.38"/><polygon class="cls-8" points="2695.23 770.38 2667.01 734.97 2667.01 805.78 2695.23 770.38"/><path class="cls-10" d="M2597.44,1101h41c4.1,0,5.05-4.53,1.18-5.58l-3.18-.86a3.46,3.46,0,0,1-2.11-1.51l-12.72-21.72c-1.28-2.19-5.19-2.23-6.55-.07l-13.67,21.85a3.48,3.48,0,0,1-2,1.43l-3.15.88C2592.39,1096.53,2593.36,1101,2597.44,1101Z" transform="translate(-30 -295.54)"/><ellipse class="cls-10" cx="2546.5" cy="770.52" rx="22.77" ry="18"/><ellipse class="cls-10" cx="2630.03" cy="770.52" rx="22.77" ry="18"/><rect class="cls-10" x="2523.73" y="725.45" width="129.07" height="9.52"/><rect class="cls-8" x="2535.77" y="730.21" width="18.44" height="4.76"/><rect class="cls-8" x="2620.81" y="730.21" width="18.44" height="4.76"/><text class="cls-22" transform="translate(1748.42 500.06) scale(1.3 1)">Lorem ipsum dolor sit amet, <tspan x="-8.2" y="32.32">consectetuer adipiscing elit, s </tspan><tspan x="0.58" y="64.65">u</tspan><tspan class="cls-23" x="17.23" y="64.65">A World Of Possibilities</tspan><tspan x="300.89" y="64.65">li</tspan><tspan x="318.53" y="64.65">-</tspan><tspan x="2.94" y="96.97">quam erat volutpat. Ut wisi </tspan><tspan x="-5.39" y="129.3" xml:space="preserve">enim ad minim veniam, qui  </tspan></text><line class="cls-11" x1="2499.66" y1="165.14" x2="2208.36" y2="456.95"/><line class="cls-24" x1="2499.66" y1="165.14" x2="2495.42" y2="169.39"/><line class="cls-25" x1="2491.2" y1="173.61" x2="2214.71" y2="450.59"/><line class="cls-24" x1="2212.6" y1="452.71" x2="2208.36" y2="456.95"/><path class="cls-26" d="M2510.24,1065.26" transform="translate(-30 -295.54)"/><line class="cls-26" x1="2208.36" y1="664.96" x2="2480.24" y2="769.72"/><line class="cls-26" x1="1412.15" y1="195.07" x2="1715.1" y2="456.95"/><rect class="cls-3" x="1601.96" y="938.52" width="115.86" height="20.98" rx="3.21" ry="3.21"/><path class="cls-27" d="M1765.13,923.06h0c3.83,1.21,8.06-.62,9.4-4.08l10.8-27.79c1.34-3.45-.69-7.27-4.52-8.48h0c-3.83-1.21-8.06.62-9.4,4.08l-10.8,27.79C1759.27,918,1761.3,921.85,1765.13,923.06Z" transform="translate(-30 -295.54)"/><path class="cls-4" d="M1758.14,907.62c1.86-4.75,7.9-7.19,13.44-5.43l10.06,3.2c5.53,1.76,8.54,7.09,6.69,11.83l-42.49,108.62-30.19-9.61Z" transform="translate(-30 -295.54)"/><path class="cls-28" d="M1724.59,1051.26l-10.06-3.2c-5.53-1.76-8.54-7.09-6.69-11.83l9.57-24.46,30.19,9.61-9.57,24.46C1736.18,1050.58,1730.13,1053,1724.59,1051.26Z" transform="translate(-30 -295.54)"/><path class="cls-4" d="M1635.83,1163.3c0,5,4.8,9.15,10.67,9.15h10.67c5.87,0,10.67-4.12,10.67-9.15V1048.12h-32Z" transform="translate(-30 -295.54)"/><path class="cls-28" d="M1657.17,1013H1646.5c-5.87,0-10.67,4.12-10.67,9.15v25.94h32v-25.94C1667.84,1017.15,1663,1013,1657.17,1013Z" transform="translate(-30 -295.54)"/><path class="cls-28" d="M1728,1030.39c0-18-17.21-32.8-38.24-32.8h0c-21,0-38.24,14.76-38.24,32.8v41.19H1728Z" transform="translate(-30 -295.54)"/><path d="M1689.76,1119.64h0c21,0,38.24-14.76,38.24-32.8v-15.26h-76.48v15.26C1651.52,1104.88,1668.73,1119.64,1689.76,1119.64Z" transform="translate(-30 -295.54)"/><rect x="1632.19" y="792.06" width="18.67" height="157.14"/><rect x="1669.54" y="792.06" width="18.67" height="157.14"/><ellipse class="cls-4" cx="1699.1" cy="654.7" rx="14.51" ry="13.45"/><ellipse class="cls-29" cx="1698.8" cy="654.42" rx="8.76" ry="8.12"/><ellipse class="cls-4" cx="1621.73" cy="654.7" rx="14.51" ry="13.45"/><ellipse class="cls-29" cx="1621.43" cy="654.42" rx="8.76" ry="8.12"/><path class="cls-30" d="M1637.23,1034.64" transform="translate(-30 -295.54)"/><rect class="cls-4" x="1621.73" y="597.55" width="77.37" height="124.39" rx="11.83" ry="11.83"/><rect class="cls-3" x="1610.55" y="623.6" width="39.29" height="19.05" rx="2.91" ry="2.91"/><rect class="cls-3" x="1670.39" y="625.29" width="39.29" height="19.05" rx="2.91" ry="2.91"/><ellipse class="cls-13" cx="1639.56" cy="652.18" rx="3.02" ry="2.8"/><ellipse class="cls-13" cx="1681.87" cy="652.18" rx="3.02" ry="2.8"/><path d="M1690.42,961.73c-10.68,0-19.34,7.59-19.34,16.95a15.86,15.86,0,0,0,5.36,11.7,24.25,24.25,0,0,1,28.15-.16,15.82,15.82,0,0,0,5.18-11.54C1709.76,969.32,1701.1,961.73,1690.42,961.73Z" transform="translate(-30 -295.54)"/><path class="cls-31" d="M1676.43,990.38a21.25,21.25,0,0,0,28.15-.16,24.25,24.25,0,0,0-28.15.16Z" transform="translate(-30 -295.54)"/><path class="cls-3" d="M1714.59,978.14c0-12.62-11-22.85-24.48-22.85s-24.48,10.23-24.48,22.85c0,.23,0,.45,0,.68h48.92C1714.58,978.59,1714.59,978.37,1714.59,978.14Z" transform="translate(-30 -295.54)"/><rect class="cls-32" x="1653.16" y="633.97" width="14.51" height="41.46" rx="2.22" ry="2.22"/><text class="cls-33" transform="translate(420.11 103.12)"><tspan class="cls-34">V</tspan><tspan x="87.59" y="0">YDEN</tspan><tspan class="cls-35"><tspan x="-420.11" y="92.79">Vi</tspan><tspan class="cls-36" x="-352.15" y="92.79">r</tspan><tspan x="-324.09" y="92.79">tual class</tspan><tspan class="cls-37" x="4.81" y="92.79">r</tspan><tspan x="30.22" y="92.79">oom experience that </tspan><tspan x="-420.11" y="185.58">t</tspan><tspan class="cls-38" x="-394.85" y="185.58">r</tspan><tspan x="-370.19" y="185.58">ansforms learning.</tspan></tspan></text><text class="cls-33" transform="translate(420.83 454.24)">MOBILE<tspan class="cls-35"><tspan x="-401.63" y="92.79">Web based, allowing convenient </tspan><tspan x="-401.63" y="185.58">and po</tspan><tspan class="cls-36" x="-166.67" y="185.58">r</tspan><tspan x="-138.62" y="185.58">table use anywhere in the </tspan><tspan x="-401.63" y="278.38">world.</tspan></tspan></text><text class="cls-33" transform="translate(229.56 881.08)">EDU<tspan class="cls-39" x="211.81" y="0">C</tspan><tspan class="cls-40" x="290.87" y="0">A</tspan><tspan x="359.04" y="0">TIONAL</tspan><tspan class="cls-35"><tspan x="-225.82" y="92.79">Uninterrupted education at your </tspan><tspan x="-225.82" y="185.58">finger tips. </tspan></tspan></text></svg>