<svg id="Layer_1" data-name="Layer 1" xmlns="http://www.w3.org/2000/svg" viewBox="0 0 1366 341"><defs><style>.cls-1,.cls-6,.cls-7,.cls-8{fill:none;}.cls-2{fill:#ffc107;}.cls-3{fill:#4caf50;}.cls-4{fill:#ff5722;}.cls-5{fill:#3f51b5;}.cls-6,.cls-7,.cls-8{stroke:#fff;}.cls-6,.cls-7{stroke-miterlimit:10;}.cls-6,.cls-8{stroke-width:4px;}.cls-7{stroke-width:5px;}.cls-8{stroke-linejoin:round;}</style></defs><title>vydenLogoWithName</title><rect class="cls-1" width="1366" height="341"/><polygon class="cls-2" points="347.53 34.75 231.34 34.75 298.98 126.11 347.53 34.75"/><polygon class="cls-3" points="294.42 134.69 218.39 34.75 90.36 34.75 241.76 233.78 294.42 134.69"/><polygon class="cls-4" points="79.24 34.75 18.97 34.75 17.38 35.63 211.83 289 212.42 289 237.76 241.31 79.24 34.75"/><polygon class="cls-5" points="359.86 34.75 358.3 34.75 349.11 52.05 300.76 143.03 248.1 242.12 244.13 249.6 223.19 289 266.07 289 275.15 289 298.52 245.02 331.35 183.24 410.26 34.75 359.86 34.75"/><path class="cls-6" d="M977.37,326.82c.33-43.66-21.81-100.44-71.86-118.55-28.66-10.37-55.55-4.11-68.59,0V442.12c12.6,4.08,40.54,11,70.23,0C956.55,423.73,977.06,368,977.37,326.82Z" transform="translate(0 -163)"/><line class="cls-7" x1="1028" y1="45.27" x2="1148.85" y2="45.27"/><line class="cls-7" x1="1028.81" y1="163.01" x2="1149.67" y2="163.01"/><line class="cls-7" x1="1028.81" y1="278.31" x2="1149.67" y2="278.31"/><polyline class="cls-8" points="1203.57 278.31 1203.57 46.08 1327.69 284.8 1327.69 39.59"/><line class="cls-6" x1="444.32" y1="45.75" x2="542.86" y2="279.79"/><line class="cls-6" x1="646.68" y1="45.75" x2="542.86" y2="279.79"/><line class="cls-6" x1="734.67" y1="188.28" x2="734.67" y2="279.79"/><line class="cls-6" x1="794.5" y1="45.75" x2="734.67" y2="188.28"/><line class="cls-6" x1="673.08" y1="45.75" x2="734.67" y2="188.28"/></svg>